# xmcd CD database file
#
# Track frame offsets:
#	150
#	8325
#	21863
#	36881
#	47356
#	62762
#	77073
#	88915
#	107664
#	128075
#	140040
#	154744
#	166330
#	180702
#
# Disc length: 2656 seconds
#
# Revision: 0
# Processed by: cddbd v1.5.1PL2 Copyright (c) Steve Scherf et al.
# Submitted via: CDex 1.50
#
DISCID=ab0a5e0e
DTITLE=Flying J Wranglers - By Request
DYEAR=2002
DGENRE=Country
TTITLE0=Yippi Yi Your Troubles Away
TTITLE1=Yodeling Farmer's Song
TTITLE2=Ridin' Home
TTITLE3=Cowboy's Sweetheart
TTITLE4=Cindy's Song
TTITLE5=Red Wing
TTITLE6=Ghost Riders in the Sky
TTITLE7=Blue Montana Skies
TTITLE8=El Rancho Grande
TTITLE9=They Call The Wind Mariah
TTITLE10=Ponies
TTITLE11=San Antonio Rose
TTITLE12=Mystery of His Way
TTITLE13=Orange Blossom Special
EXTD=YEAR: 2002
EXTT0=
EXTT1=
EXTT2=
EXTT3=
EXTT4=
EXTT5=
EXTT6=
EXTT7=
EXTT8=
EXTT9=
EXTT10=
EXTT11=
EXTT12=
EXTT13=
PLAYORDER=
